<svg width="40" height="40" viewBox="0 0 40 40" fill="none" xmlns="http://www.w3.org/2000/svg">
    <path d="M19.983 2.5874C21.0044 2.5874 22.0041 2.73574 22.7574 3.01709V3.01807L31.0748 6.13525H31.0758C33.2953 6.96202 35.0504 9.50761 35.0504 11.8667V24.2495C35.0504 25.3367 34.7062 26.5895 34.1237 27.7485C33.5777 28.8348 32.8403 29.8024 32.0309 30.4556L31.8678 30.5825L24.7008 35.9321L24.6949 35.937C23.4122 36.9261 21.7236 37.4331 19.9996 37.4331C18.2769 37.433 16.5846 36.9263 15.2643 35.9478H15.2633L8.09924 30.5991C7.22654 29.9484 6.4252 28.9208 5.84241 27.7593C5.25956 26.5976 4.91663 25.3447 4.91663 24.2661V11.8667C4.91663 9.58124 6.5633 7.12039 8.6842 6.21729L8.89124 6.13525H8.89221L17.2086 3.01807C17.962 2.73655 18.9614 2.58743 19.983 2.5874ZM20.0006 4.08545C19.3018 4.08736 18.5814 4.17016 17.9879 4.34912L17.7418 4.43115L17.7408 4.43213L9.42444 7.54834H9.42346C8.59596 7.85993 7.85473 8.52245 7.32385 9.29053C6.79277 10.0589 6.43323 10.9898 6.43323 11.8833V24.2661C6.43323 25.1606 6.74381 26.1893 7.20081 27.1011C7.60051 27.8986 8.13712 28.6561 8.73889 29.187L9.00061 29.4009L16.1676 34.7505C17.2294 35.5444 18.628 35.9252 20.0016 35.9253C21.2897 35.9253 22.6029 35.5902 23.6432 34.895L23.8473 34.7515L23.8492 34.7505L31.0153 29.4009L31.0162 29.3999C31.731 28.8638 32.3666 28.0049 32.8219 27.0942C33.2772 26.1836 33.5836 25.1596 33.5836 24.2661V11.8667C33.5836 10.9807 33.2232 10.0539 32.693 9.28662C32.1957 8.56719 31.5141 7.93786 30.7516 7.59814L30.5973 7.53369L30.5924 7.53174L22.275 4.41455L22.2662 4.41162L22.0182 4.33252C21.4213 4.16197 20.7 4.08354 20.0006 4.08545Z" fill="#FAFAFA" stroke="#FAFAFA"/>
    <path d="M24.4039 14.77C24.674 14.5003 25.1154 14.4832 25.4069 14.7192L25.4635 14.77C25.7336 15.0402 25.75 15.4824 25.5133 15.7739L25.4635 15.8296L18.2965 22.9966C18.1452 23.1478 17.9574 23.2163 17.7662 23.2163C17.5991 23.2162 17.4352 23.1637 17.2955 23.0493L17.2369 22.9966L14.5533 20.313C14.2836 20.043 14.2666 19.6015 14.5026 19.3101L14.5533 19.2534C14.8234 18.9833 15.2657 18.9663 15.5573 19.2026L15.6129 19.2534L17.7662 21.4067L18.1207 21.0532L24.4039 14.77Z" fill="#FAFAFA" stroke="#FAFAFA"/>
</svg>
